<?xml version="1.0" encoding="utf-8"?>
<!DOCTYPE svg PUBLIC "-//W3C//DTD SVG 20010904//EN" "http://www.w3.org/TR/2001/REC-SVG-20010904/DTD/svg10.dtd">
<svg version="1.0" width="150pt" height="150pt" viewBox="0 0 150 150" preserveAspectRatio="xMidYMid meet" xmlns="http://www.w3.org/2000/svg">
  <g transform="translate(0,150)scale(.075,.075)">
    <path id="path1" d="M 0 -1000 l 0 1000 1000 0 1000 0 0 -1000 0 -1000 -1000 0 -1000 0 0 1000 z m 540 -750 c 42 42 8 124 -57 135 -58 10 -63 13 -63 38 0 33 -23 62 -44 54 -20 -8 -20 -24 -1 -123 25 -123 25 -124 90 -124 42 0 60 5 75 20 z m 273 2 c 3 13 11 65 18 116 9 71 9 96 0 105 -16 16 -45 -3 -49 -32 -3 -17 -10 -21 -43 -21 -32 0 -41 4 -51 25 -12 28 -45 42 -60 27 -7 -7 10 -48 52 -126 59 -112 62 -116 95 -116 26 0 34 5 38 22 z m 347 -10 c 0 24 -15 36 -45 40 -28 3 -30 6 -47 92 -18 89 -29 109 -58 103 -17 -3 -17 -18 4 -125 l 14 -72 -29 0 c -24 0 -29 -4 -29 -25 0 -25 0 -25 95 -25 69 0 95 3 95 12 z m -512 470 c -2 18 -11 24 -38 28 -30 4 -35 10 -41 40 -29 144 -30 149 -51 156 -11 3 -24 2 -28 -3 -7 -7 2 -73 25 -171 5 -19 1 -22 -25 -22 -22 0 -30 -5 -30 -18 0 -29 8 -32 102 -32 87 0 89 1 86 22 z m 250 0 c -3 20 -10 23 -50 26 -39 3 -48 7 -48 22 0 14 8 20 32 22 25 2 33 8 33 23 0 16 -8 21 -41 23 -38 3 -42 6 -46 33 -4 28 -4 29 39 29 40 0 44 2 41 22 -3 21 -9 23 -67 26 -35 2 -68 -1 -73 -6 -9 -9 25 -212 39 -234 2 -5 36 -8 74 -8 67 0 70 1 67 22 z m 260 -6 c 30 21 29 68 -2 97 -16 15 -22 28 -16 37 4 8 10 32 14 52 6 32 4 37 -15 43 -25 8 -49 -15 -49 -46 0 -51 -36 -68 -46 -21 -10 48 -23 72 -39 72 -26 0 -28 -27 -10 -117 26 -134 26 -133 88 -133 31 0 61 6 75 16 z m -668 492 c 11 31 23 64 27 72 5 13 30 -80 32 -118 1 -6 12 -12 26 -12 30 0 30 -1 4 133 l -22 108 -36 -3 c -35 -3 -36 -4 -55 -70 -11 -38 -23 -68 -26 -68 -4 0 -12 31 -19 69 -12 68 -25 86 -55 75 -11 -4 -9 -24 9 -113 12 -59 25 -113 29 -119 4 -7 20 -12 36 -12 26 0 31 6 50 58 z m 365 -48 c 3 6 4 19 0 30 -5 16 -10 18 -32 9 -59 -22 -71 15 -18 55 27 21 35 34 35 59 -1 39 -17 63 -54 77 -38 14 -68 13 -93 -5 -26 -18 -21 -61 6 -49 75 32 107 -1 48 -49 -70 -56 -38 -137 54 -137 26 0 51 5 54 10 z M 445 -1690 c -9 41 -2 47 30 26 31 -20 30 -50 -2 -54 -17 -3 -23 3 -28 28 z M 742 -1665 c -16 34 -15 35 8 35 16 0 20 -7 20 -30 0 -37 -13 -39 -28 -5 z M 1066 -1244 c -10 26 -7 34 12 34 21 0 42 -18 42 -37 0 -19 -47 -16 -54 3 z " />
  </g>
</svg>