<?xml version="1.0" encoding="utf-8"?>
<!DOCTYPE svg PUBLIC "-//W3C//DTD SVG 20010904//EN" "http://www.w3.org/TR/2001/REC-SVG-20010904/DTD/svg10.dtd">
<svg version="1.0" width="846.75pt" height="497.25pt" viewBox="0 0 846.75 497.25" preserveAspectRatio="xMidYMid meet" xmlns="http://www.w3.org/2000/svg">
  <g transform="translate(0,497.25)scale(.075,.075)">
    <path id="path1" d="M 0 -3315 l 0 3315 5645 0 5645 0 0 -3315 0 -3315 -5645 0 -5645 0 0 3315 z m 6512 -2965 c 45 13 70 36 64 59 -2 9 -7 29 -11 45 -6 30 -4 30 -85 1 -81 -30 -153 12 -136 78 4 17 28 39 68 65 104 66 135 113 122 187 -11 65 -41 114 -91 145 -75 48 -197 57 -278 21 -42 -19 -45 -22 -45 -59 0 -21 6 -47 14 -57 14 -19 15 -19 57 4 79 45 177 29 198 -31 15 -42 2 -60 -80 -114 -86 -57 -114 -103 -107 -176 13 -131 159 -210 310 -168 z m -5131 28 c 51 31 73 81 66 147 -14 138 -115 224 -263 225 l -72 0 -18 95 c -10 52 -21 100 -25 106 -9 15 -99 23 -117 11 -11 -8 -3 -63 43 -293 37 -183 63 -291 73 -302 15 -17 31 -18 147 -15 114 3 134 6 166 26 z m 713 -19 c 7 11 86 537 86 572 0 30 -15 39 -68 39 -50 0 -59 -8 -67 -55 -15 -94 -2 -85 -125 -85 l -109 0 -32 61 c -37 70 -54 81 -112 77 -31 -2 -43 -8 -45 -21 -3 -15 253 -500 300 -569 18 -26 24 -28 93 -28 41 0 76 4 79 9 z m 896 21 c 0 16 -5 40 -11 54 -11 24 -17 25 -92 28 l -81 3 -48 240 c -52 260 -54 265 -117 265 -71 0 -70 5 -21 -242 24 -123 46 -233 48 -245 4 -21 1 -22 -74 -25 l -79 -3 2 -39 c 4 -67 1 -66 249 -66 l 224 0 0 30 z m 691 -18 c 2 27 -3 64 -12 80 -8 15 -24 18 -89 18 l -79 0 -10 52 c -6 29 -28 140 -50 246 -21 106 -41 195 -44 199 -11 10 -101 14 -115 5 -11 -8 -5 -53 32 -244 25 -130 46 -241 46 -247 0 -7 -26 -11 -74 -11 -55 0 -75 -4 -79 -14 -6 -14 5 -65 18 -86 10 -16 455 -14 456 2 z m 649 21 c 0 18 -7 43 -16 55 -14 20 -23 22 -124 22 l -108 0 -11 50 c -18 83 -22 79 81 82 l 93 3 -1 37 c -2 61 -14 68 -119 68 l -92 0 -12 62 c -7 35 -14 71 -17 80 -5 16 5 18 110 18 l 116 0 0 24 c 0 14 -4 36 -10 50 l -10 26 -175 0 -175 0 0 -28 c 0 -54 103 -547 118 -564 13 -16 36 -18 184 -18 l 168 0 0 33 z m 657 -10 c 87 47 83 194 -7 270 -16 14 -39 28 -50 32 -19 6 -19 7 -1 26 21 23 35 67 55 177 13 68 13 73 -4 82 -24 13 -86 13 -109 1 -13 -7 -21 -33 -31 -95 -17 -113 -37 -146 -88 -146 l -38 0 -22 112 c -24 124 -33 138 -91 138 -70 0 -70 10 -7 -307 32 -158 63 -294 69 -301 17 -22 281 -12 324 11 z m 587 -8 c 8 8 44 102 79 209 l 64 193 37 -191 c 21 -105 42 -199 47 -208 7 -14 22 -18 59 -18 27 0 51 3 54 8 2 4 -21 135 -53 291 -63 312 -67 321 -136 321 -83 0 -81 3 -170 -275 -30 -93 -55 -168 -55 -165 -1 3 -21 100 -43 215 l -42 210 -37 9 c -25 6 -46 6 -61 -1 l -24 -11 57 -288 c 44 -220 62 -291 76 -301 25 -18 129 -17 148 2 z m -3374 2764 c 0 14 -220 405 -233 413 -19 12 -47 9 -53 -5 -2 -7 46 -104 108 -215 110 -199 112 -202 145 -202 18 0 33 4 33 9 z m 210 -2 c 0 12 -223 408 -234 415 -18 12 -46 9 -52 -6 -3 -7 45 -104 107 -215 111 -200 112 -201 145 -201 19 0 34 3 34 7 z m 4450 4 c 0 6 -50 100 -111 210 -89 159 -116 200 -136 205 -55 14 -48 -10 68 -220 112 -202 115 -206 147 -206 17 0 32 5 32 11 z m 1870 2 c 0 8 -48 100 -107 206 -107 194 -132 224 -167 204 -13 -7 -3 -33 75 -173 144 -262 136 -250 169 -250 18 0 30 5 30 13 z m -7790 29 c 0 13 -4 39 -9 59 l -8 37 30 -13 c 41 -17 85 -2 93 32 4 14 -1 63 -11 109 -15 74 -21 85 -42 90 -40 10 -45 -6 -28 -85 19 -91 19 -91 -5 -91 -26 0 -57 51 -66 107 -8 58 -24 78 -56 70 l -25 -7 28 -142 c 41 -204 35 -188 69 -188 25 0 30 4 30 22 z m 3237 0 c -3 13 -18 86 -33 163 -15 77 -32 143 -38 147 -19 13 -46 9 -46 -8 0 -14 -2 -14 -22 0 -31 22 -74 20 -98 -4 -42 -42 -13 -179 44 -210 13 -7 42 -11 65 -8 44 4 44 4 57 -64 6 -35 9 -38 41 -38 31 0 35 2 30 22 z m 1303 0 c 0 13 -4 39 -9 59 l -8 37 31 -13 c 34 -14 52 -11 78 13 22 19 22 36 1 135 -14 67 -20 78 -40 84 -40 9 -45 -7 -28 -86 19 -91 19 -91 -5 -91 -26 0 -57 51 -66 107 -8 58 -24 78 -56 70 l -25 -7 28 -142 c 41 -204 35 -188 69 -188 25 0 30 4 30 22 z m 505 16 c -3 20 -9 48 -12 62 -5 21 -3 23 8 12 7 -6 30 -12 50 -12 47 0 69 27 69 84 0 103 -89 184 -160 146 -13 -7 -21 -7 -25 0 -8 12 -42 13 -49 1 -5 -8 46 -285 59 -319 2 -6 19 -12 36 -12 31 0 31 1 24 38 z m -3489 -14 c 10 27 -15 57 -44 54 -27 -3 -39 -25 -28 -54 7 -18 65 -19 72 0 z m 2204 10 c 0 30 -22 49 -52 44 -49 -7 -28 -68 23 -68 24 0 29 4 29 24 z m 500 0 c 0 30 -22 49 -52 44 -49 -7 -28 -68 23 -68 24 0 29 4 29 24 z m 1170 0 c 0 32 -24 50 -55 42 -27 -7 -30 -17 -15 -47 7 -12 21 -19 40 -19 25 0 30 4 30 24 z m -5028 34 c -3 26 0 32 17 32 26 0 31 10 20 38 -5 14 -17 22 -33 22 -20 0 -25 6 -31 38 -3 20 -9 47 -12 60 -4 18 -1 22 21 22 28 0 36 26 14 48 -19 19 -73 14 -93 -8 -18 -20 -18 -34 1 -128 6 -32 6 -32 -33 -32 l -40 0 -10 55 c -10 60 -9 65 19 65 21 0 25 29 6 48 -13 13 -47 16 -73 6 -28 -11 -35 -49 -23 -111 9 -43 9 -58 0 -61 -20 -6 -14 -53 7 -59 11 -3 21 -14 23 -25 7 -47 68 -50 68 -3 0 23 4 25 40 25 35 0 40 -3 40 -23 0 -31 19 -48 50 -45 22 3 25 7 22 36 z m 6262 0 c -2 28 1 32 22 32 14 0 24 6 24 14 0 29 -13 46 -35 46 -29 0 -31 3 -40 68 -7 52 -6 54 16 50 20 -2 24 1 21 22 -3 29 -18 40 -53 40 -50 0 -63 -20 -56 -87 4 -33 9 -67 13 -76 5 -14 -1 -17 -34 -17 -44 0 -47 4 -57 74 -7 45 -7 46 19 46 16 0 26 6 26 14 0 24 -29 46 -60 46 -56 0 -70 -38 -49 -129 8 -36 7 -45 -7 -55 -21 -16 -11 -52 16 -59 12 -3 20 -14 20 -26 0 -14 8 -23 24 -27 34 -8 49 3 42 32 -6 22 -4 24 34 24 35 0 40 -3 46 -28 10 -40 13 -43 42 -40 23 3 27 7 26 36 z m -4240 -22 c 11 4 14 13 10 30 -5 21 -3 24 20 24 16 0 26 6 26 14 0 29 -13 46 -35 46 -30 0 -32 4 -41 70 -7 51 -6 53 15 47 17 -4 21 -1 21 17 0 42 -45 60 -91 36 -21 -12 -25 -66 -10 -132 7 -30 6 -38 -5 -38 -23 0 -18 -51 6 -57 11 -3 20 -11 20 -18 0 -15 27 -45 40 -45 5 0 15 3 24 6 z m 1949 27 c -1 23 2 27 23 27 22 0 25 4 22 28 -2 21 -9 28 -30 30 -30 4 -34 10 -43 76 -7 45 -7 46 20 46 23 0 25 3 19 22 -8 29 -22 38 -56 38 -46 0 -61 -26 -55 -90 4 -31 9 -64 13 -73 4 -12 1 -17 -10 -17 -30 0 -17 -51 16 -63 10 -3 18 -15 18 -26 0 -21 15 -31 45 -28 15 2 20 9 18 30 z m -3508 57 c 0 23 -3 25 -43 22 -52 -5 -58 19 -11 43 80 42 37 145 -61 145 -41 0 -70 -16 -70 -40 0 -27 13 -31 50 -19 26 9 35 9 47 -4 14 -14 11 -18 -26 -41 -35 -22 -41 -31 -41 -60 0 -54 59 -90 125 -76 24 4 30 11 30 30 z m 1363 -17 c 8 6 12 6 12 -2 0 -6 14 -11 31 -11 27 0 30 3 26 22 -3 13 -13 62 -23 110 -9 48 -23 93 -30 99 -16 13 -57 2 -47 -13 3 -7 -4 -4 -18 5 -59 42 -119 7 -119 -68 0 -117 96 -198 168 -142 z m 3412 15 c 36 45 20 132 -33 181 -18 16 -42 25 -75 29 -41 3 -53 0 -76 -20 -24 -20 -28 -31 -28 -71 2 -77 42 -133 104 -146 50 -10 86 -1 108 27 z m 1248 -23 c 26 8 43 43 35 73 -7 30 -43 50 -102 58 -32 4 -51 11 -51 20 0 16 34 36 52 30 57 -18 68 -17 68 9 0 29 -30 45 -85 45 -74 0 -111 -41 -99 -109 13 -70 47 -115 100 -131 29 -8 38 -8 82 5 z m -6348 5 c 0 7 6 7 19 0 29 -15 87 -12 101 5 25 31 24 92 -4 149 -30 61 -65 82 -119 72 -32 -6 -33 -5 -43 36 -8 39 -12 43 -39 43 -36 0 -36 8 1 -177 l 27 -138 28 0 c 16 0 29 5 29 10 z m 997 12 c -3 13 -14 65 -23 116 -16 82 -21 93 -42 99 -39 9 -46 -8 -33 -79 33 -168 29 -158 68 -158 31 0 35 2 30 22 z m 181 -10 c 9 9 12 9 12 0 0 -7 13 -12 30 -12 16 0 30 4 30 9 0 4 -11 64 -25 132 -19 94 -31 130 -48 147 -27 26 -80 37 -132 28 -32 -6 -36 -10 -33 -34 3 -26 5 -27 57 -23 37 2 56 -1 62 -10 14 -23 10 -30 -10 -19 -51 27 -111 -10 -111 -69 0 -89 53 -161 117 -161 22 0 44 5 51 12 z m 182 -2 c 0 7 6 7 19 0 27 -14 84 -13 99 2 15 15 15 76 -1 152 -13 62 -32 84 -62 72 -15 -5 -17 -14 -11 -54 4 -26 10 -64 13 -84 5 -30 2 -38 -10 -38 -29 0 -55 41 -67 106 -11 55 -16 65 -37 70 -43 11 -46 -6 -22 -125 22 -110 22 -111 50 -111 16 0 29 5 29 10 z m 738 2 c 9 9 12 9 12 0 0 -7 13 -12 30 -12 19 0 30 5 30 14 0 38 -42 211 -53 218 -19 12 -37 9 -43 -7 -5 -13 -8 -13 -27 0 -50 35 -117 -2 -117 -64 0 -89 53 -161 117 -161 22 0 44 5 51 12 z m 182 -2 c 0 7 6 7 19 0 27 -14 84 -13 99 2 15 15 15 68 1 144 -13 67 -24 84 -50 84 -29 0 -32 -17 -19 -96 7 -41 10 -77 7 -80 -3 -3 -14 -3 -25 0 -22 7 -46 59 -57 124 -5 34 -12 43 -32 48 -43 11 -46 -5 -22 -125 22 -110 22 -111 50 -111 16 0 29 5 29 10 z m 590 5 c 0 27 -13 45 -31 45 -31 0 -56 35 -70 97 -7 32 -17 64 -22 71 -13 16 -46 15 -53 -2 -5 -12 8 -92 31 -203 5 -19 11 -21 75 -21 52 0 70 3 70 13 z m 192 2 c 22 20 24 66 3 87 -17 17 -77 36 -113 36 -25 0 -29 22 -7 40 13 10 24 11 56 1 47 -14 54 -11 45 22 -11 45 -121 53 -161 12 -43 -42 -26 -145 33 -192 34 -29 116 -32 144 -6 z m 138 -9 c 0 4 -10 55 -21 115 -20 97 -24 108 -46 113 -41 11 -45 -6 -23 -112 11 -54 22 -105 25 -112 5 -13 65 -17 65 -4 z m 306 3 c 4 8 9 8 17 0 16 -16 57 -14 57 4 0 8 -11 68 -25 132 -32 150 -46 168 -139 168 -72 0 -81 -4 -73 -37 6 -21 12 -24 64 -23 48 0 58 -3 61 -18 3 -16 1 -17 -16 -8 -74 40 -129 -30 -102 -129 17 -62 58 -100 109 -100 22 0 43 5 47 11 z m 194 -3 c 0 4 -10 55 -21 115 -20 97 -24 108 -46 113 -43 11 -46 -6 -24 -116 11 -56 23 -106 26 -111 7 -11 65 -12 65 -1 z m 532 -3 c 3 3 -1 34 -8 68 -18 86 -18 109 2 105 28 -5 56 -53 68 -114 11 -56 13 -59 44 -62 23 -2 32 1 32 11 0 21 -39 207 -46 218 -7 12 -38 11 -51 -2 -8 -8 -17 -8 -31 0 -32 17 -67 13 -87 -9 -19 -21 -18 -61 5 -168 11 -47 14 -52 39 -52 15 0 30 2 33 5 z m 638 9 c 0 8 -9 58 -20 112 -19 91 -30 114 -55 114 -31 0 -33 -16 -14 -115 10 -55 21 -106 24 -113 6 -17 65 -16 65 2 z m 570 -4 c 0 7 6 7 19 0 35 -18 88 -12 105 12 23 32 20 97 -6 148 -27 53 -59 72 -110 66 -39 -4 -39 -5 -52 56 -5 23 -12 28 -36 28 -25 0 -30 -4 -30 -25 0 -22 45 -249 55 -283 5 -14 55 -16 55 -2 z m 328 2 c 9 9 12 9 12 0 0 -7 13 -12 30 -12 16 0 30 3 30 8 0 4 -10 55 -21 114 -18 89 -25 109 -42 114 -13 4 -25 1 -32 -9 -9 -13 -13 -13 -30 -1 -20 15 -63 18 -81 6 -19 -12 -34 -50 -34 -84 1 -43 32 -111 61 -132 27 -19 90 -21 107 -4 z m 808 11 c -3 12 -6 25 -6 29 0 5 -11 8 -25 8 -32 0 -60 44 -70 109 -8 53 -20 71 -47 71 -29 0 -32 -24 -14 -118 26 -131 17 -120 97 -120 68 0 71 1 65 21 z m 87 -11 c 4 10 7 10 18 0 18 -17 85 -15 103 4 20 19 20 30 0 132 -15 73 -20 83 -41 88 -40 10 -45 -6 -28 -85 8 -40 13 -77 9 -82 -20 -33 -68 24 -80 95 -8 54 -21 76 -42 76 -39 -1 -41 -11 -21 -115 26 -129 24 -125 53 -125 13 0 26 6 29 12 z m 332 18 c 0 23 -3 25 -43 22 -54 -4 -57 17 -7 47 35 21 45 53 29 96 -15 38 -111 59 -148 32 -24 -18 -17 -53 9 -49 77 13 98 -9 42 -43 -42 -27 -49 -76 -16 -112 20 -21 31 -23 79 -21 51 3 55 5 55 28 z m -6535 -1 c 0 38 -11 51 -46 51 -27 0 -34 -4 -34 -19 0 -38 11 -51 46 -51 27 0 34 4 34 19 z m -32 157 c 4 28 -24 56 -52 52 -25 -4 -34 -41 -15 -64 18 -22 63 -14 67 12 z m 2862 2 c 0 48 -43 70 -70 37 -22 -26 3 -65 40 -65 26 0 30 4 30 28 z m 1428 -2 c 4 28 -24 56 -52 52 -22 -3 -33 -36 -22 -64 9 -25 70 -14 74 12 z M 1153 -6081 l -20 101 41 0 c 53 0 103 -31 122 -75 31 -75 7 -115 -74 -123 l -49 -4 -20 101 z M 1928 -6030 c -32 60 -58 111 -58 114 0 3 34 6 75 6 41 0 75 -1 75 -3 0 -11 -31 -221 -33 -223 -1 -1 -28 47 -59 106 z M 4766 -6159 c -17 73 -26 115 -26 127 0 8 18 12 56 12 48 0 59 -4 85 -29 21 -21 29 -39 29 -64 0 -45 -19 -59 -85 -65 -50 -4 -54 -3 -59 19 z M 4010 -3315 c -16 19 -25 91 -12 99 19 12 44 -7 63 -48 13 -29 15 -44 7 -53 -14 -17 -43 -16 -58 2 z M 5976 -3311 c -26 28 -37 78 -21 91 33 27 75 -22 75 -86 0 -30 -29 -32 -54 -5 z M 3090 -3316 c -7 9 -15 37 -18 62 -5 43 -4 46 19 42 25 -3 55 -47 61 -88 2 -21 -2 -26 -23 -28 -14 -2 -31 4 -39 12 z M 6474 -3332 c -19 13 -34 50 -34 86 0 31 3 36 24 36 32 0 54 -23 62 -65 9 -49 -19 -80 -52 -57 z M 7742 -3328 c -18 18 -14 28 11 28 23 0 47 -17 47 -32 0 -12 -45 -9 -58 4 z M 1501 -3321 c -22 22 -41 62 -41 86 0 22 39 29 60 10 25 -23 36 -84 17 -102 -13 -13 -17 -13 -36 6 z M 2591 -3321 c -24 24 -38 88 -23 103 22 22 63 -17 77 -74 5 -20 2 -29 -14 -37 -17 -9 -24 -8 -40 8 z M 3494 -3295 c -19 47 -15 80 10 80 25 0 56 -43 59 -80 2 -26 -2 -30 -26 -33 -23 -3 -30 2 -43 33 z M 4435 -3320 c -18 19 -17 20 3 20 31 0 52 -11 52 -26 0 -21 -34 -17 -55 6 z M 4921 -3321 c -21 21 -37 83 -26 100 18 29 70 -14 81 -66 5 -25 2 -33 -15 -42 -17 -9 -24 -8 -40 8 z M 6936 -3311 c -26 28 -37 78 -21 91 33 27 75 -19 75 -80 0 -36 -27 -41 -54 -11 z M 7164 -3295 c -19 47 -15 80 10 80 25 0 56 -43 59 -80 2 -26 -2 -30 -26 -33 -23 -3 -30 2 -43 33 z " />
  </g>
</svg>